# xmcd
#
# Track frame offsets:
#	150
#	14730
#	28612
#	50860
#	66577
#	83262
#	95520
#	110940
#	127865
#	140300
#	156757
#	172117
#	184690
#	199867
#	216685
#
# Disc length: 3146 seconds
#
# Revision: 0
# Processed by: cddbd v1.5.1PL2 Copyright (c) Steve Scherf et al.
# Submitted via: audiograbber 1.83.01
#
DISCID=e20c480f
DTITLE=Sound Choice Karaoke - SC8355
DYEAR=1900
DGENRE=Karaoke Country
TTITLE0=Gayle, Crystal - Why Have You Left The One You Left Me For
TTITLE1=Twitty, Conway - I See The Want In Your Eyes
TTITLE2=Mavericks - I Should Have Been True
TTITLE3=Loveless, Patty - On Down The Line
TTITLE4=Twitty, Conway - Touch The Hand
TTITLE5=Lawrence, Tracy - If The Good Die Young
TTITLE6=Mandrell, Barbara - One Of A Kind Pair Of Fools
TTITLE7=Bellamy Brothers - If I Said You Had A Beautiful Body Would You Hold It
TTITLE7=Against Me
TTITLE8=Reed, Jerry - When You're Hot You're Hot
TTITLE9=Conlee, John - Rose Colored Glasses
TTITLE10=Campbell, Glen - Gentle On My Mind
TTITLE11=Owens, Buck - Together Again
TTITLE12=Skaggs, Ricky - Highway 40 Blues
TTITLE13=Alabama - Love In The First Degree
TTITLE14=Milsap, Ronnie - I Wouldn't Have  Missed It For The World
EXTD=
EXTT0=
EXTT1=
EXTT2=
EXTT3=
EXTT4=
EXTT5=
EXTT6=
EXTT7=
EXTT8=
EXTT9=
EXTT10=
EXTT11=
EXTT12=
EXTT13=
EXTT14=
PLAYORDER=
